<svg xmlns="http://www.w3.org/2000/svg" viewBox="0 0 612 612"><path fill="currentcolor" d="M306 612c-28.2 0-55.3-3.7-81.4-11A307.8 307.8 0 0 1 41.9 460.5 310.3 310.3 0 0 1 11 387.4C3.7 361.3 0 334.2 0 306s3.7-55.3 11-81.4a308.7 308.7 0 0 1 78.7-135A305 305 0 0 1 306 0c42 0 81.7 8 119 24.2s69.8 38 97.3 65.5 49.4 60 65.5 97.3S612 264 612 306c0 28.2-3.7 55.3-11 81.4a305 305 0 0 1-140.5 182.7 310.3 310.3 0 0 1-73.1 30.9c-26.1 7.3-53.2 11-81.4 11zm147.5-432H163.4c-2.9 0-5.3.8-7.3 2.7s-3.1 4.4-3.1 7.6v32.5c0 1.6.6 2.4 1.8 2.4l152.4 87 1.3.5c.8 0 1.4-.2 1.8-.6l147.5-86.9c.8-.4 1.4-.6 1.8-.6.4 0 1-.2 1.9-.6 1.6 0 2.4-.8 2.4-2.5v-31.2c0-3.2-1-5.8-3-7.6s-4.6-2.8-7.4-2.8zm-208 130.3c.3-.4.5-1 .5-1.9 0-1.2-.4-1.8-1.2-1.8l-87.5-50.2c-1.2-.4-2.3-.4-3 0-.9 0-1.3.6-1.3 1.9v131.5c0 1.3.6 2 1.8 2.5h1.3c.8 0 1.2-.2 1.2-.6l88.1-81.4zm106.4 9.8c-.4-1.3-1.4-1.5-3-.6L315.1 339c-4.1 2.5-8.4 2.5-12.9 0L273 322.5c-1.2-.8-2.2-.8-3 0l-112 104c-.4.5-.6 1.3-.6 2.5 0 .4.4 1 1.2 1.8 2.5.9 4 1.3 4.9 1.3h287c.8 0 1.7-.4 2.5-1.3 0-1.6-.2-2.6-.6-3L351.9 320zM462.1 254h-2.5l-83.2 49.6c-.8 0-1.2.6-1.2 1.8-.4.4-.2 1 .6 1.8l83.2 90c.8.8 1.4 1.2 1.8 1.2h1.3c1.2-1.2 1.8-2 1.8-2.4V256.4c0-.8-.6-1.6-1.8-2.4z"/></svg>
